<svg width="300" height="400" viewBox="0 0 300 400" xmlns="http://www.w3.org/2000/svg">
  <defs>
    <linearGradient id="paperGradient" x1="0%" y1="0%" x2="100%" y2="100%">
      <stop offset="0%" stop-color="#1A1E33" />
      <stop offset="100%" stop-color="#0D0F1A" />
    </linearGradient>
    <linearGradient id="accentGradient" x1="0%" y1="0%" x2="100%" y2="0%">
      <stop offset="0%" stop-color="#8C4FFF" />
      <stop offset="100%" stop-color="#6A36C5" />
    </linearGradient>
  </defs>
  <rect width="300" height="400" rx="10" fill="url(#paperGradient)" stroke="#8C4FFF" stroke-width="2" />
  
  <!-- Logo at top -->
  <path d="M30 40 L40 25 L50 40 L40 55 Z" fill="url(#accentGradient)" />
  <text x="60" y="45" font-family="Inter, sans-serif" font-weight="700" font-size="16" fill="#FFFFFF">VertexYield</text>
  
  <!-- Title -->
  <text x="30" y="90" font-family="Inter, sans-serif" font-weight="700" font-size="18" fill="#FFFFFF">Whitepaper</text>
  <text x="30" y="115" font-family="Inter, sans-serif" font-weight="500" font-size="14" fill="#FFFFFF">Institutional DeFi Infrastructure</text>
  
  <!-- Document lines -->
  <rect x="30" y="140" width="240" height="2" rx="1" fill="#8C4FFF" opacity="0.5" />
  <rect x="30" y="160" width="240" height="1" rx="0.5" fill="#FFFFFF" opacity="0.1" />
  <rect x="30" y="180" width="240" height="1" rx="0.5" fill="#FFFFFF" opacity="0.1" />
  <rect x="30" y="200" width="240" height="1" rx="0.5" fill="#FFFFFF" opacity="0.1" />
  <rect x="30" y="220" width="240" height="1" rx="0.5" fill="#FFFFFF" opacity="0.1" />
  <rect x="30" y="240" width="240" height="1" rx="0.5" fill="#FFFFFF" opacity="0.1" />
  <rect x="30" y="260" width="240" height="1" rx="0.5" fill="#FFFFFF" opacity="0.1" />
  <rect x="30" y="280" width="240" height="1" rx="0.5" fill="#FFFFFF" opacity="0.1" />
  <rect x="30" y="300" width="240" height="1" rx="0.5" fill="#FFFFFF" opacity="0.1" />
  <rect x="30" y="320" width="240" height="1" rx="0.5" fill="#FFFFFF" opacity="0.1" />
  
  <!-- Chart -->
  <path d="M50 350 L90 330 L130 340 L170 320 L210 310 L250 290" stroke="#8C4FFF" stroke-width="2" fill="none" />
  <circle cx="50" cy="350" r="3" fill="#8C4FFF" />
  <circle cx="90" cy="330" r="3" fill="#8C4FFF" />
  <circle cx="130" cy="340" r="3" fill="#8C4FFF" />
  <circle cx="170" cy="320" r="3" fill="#8C4FFF" />
  <circle cx="210" cy="310" r="3" fill="#8C4FFF" />
  <circle cx="250" cy="290" r="3" fill="#8C4FFF" />
</svg>
